fd_2_states
version=1
nRows=13
nColumns=17
inDegrees=yes

# SIMM Motion File Header:
name fd_2_states
datacolumns 17
datarows 13
otherdata 1
range 0.03000000 0.04650833
endheader
time	/jointset/r_shoulder/r_shoulder_elev/value	/jointset/r_shoulder/r_shoulder_elev/speed	/jointset/r_elbow/r_elbow_flex/value	/jointset/r_elbow/r_elbow_flex/speed	/forceset/TRIlong/activation	/forceset/TRIlong/fiber_length	/forceset/TRIlat/activation	/forceset/TRIlat/fiber_length	/forceset/TRImed/activation	/forceset/TRImed/fiber_length	/forceset/BIClong/activation	/forceset/BIClong/fiber_length	/forceset/BICshort/activation	/forceset/BICshort/fiber_length	/forceset/BRA/activation	/forceset/BRA/fiber_length
      0.03000000	      0.00000000	      0.00000000	     32.10000001	     70.00000021	      0.02000000	      0.14904987	      0.05247430	      0.08262417	      0.05109138	      0.07768968	      0.20286867	      0.13719480	      0.04421541	      0.13743619	      0.02000000	      0.08580989
      0.03022813	     -0.00000035	     -0.00297369	     32.11596975	     70.00529997	      0.02006000	      0.14905614	      0.05236731	      0.08263075	      0.05098931	      0.07769622	      0.20204092	      0.13718963	      0.04431955	      0.13742928	      0.02059919	      0.08580611
      0.03045626	     -0.00000133	     -0.00554911	     32.13194052	     70.00893749	      0.02005981	      0.14906243	      0.05226070	      0.08263741	      0.05088760	      0.07770284	      0.20121993	      0.13718453	      0.04445484	      0.13742227	      0.02107840	      0.08580203
      0.03159691	     -0.00001366	     -0.01568604	     32.21179963	     70.01163193	      0.02005892	      0.14909401	      0.05173333	      0.08267170	      0.05038445	      0.07773690	      0.19718906	      0.13715997	      0.04505476	      0.13738608	      0.02318162	      0.08577835
      0.03434488	     -0.00009990	     -0.05269336	     32.40417064	     70.00160972	      0.02005681	      0.14917065	      0.05050074	      0.08275839	      0.04920822	      0.07782265	      0.18796101	      0.13710617	      0.04608704	      0.13729349	      0.02671021	      0.08571319
      0.03528409	     -0.00015902	     -0.07429840	     32.46991810	     70.00611056	      0.02005611	      0.14919691	      0.05009140	      0.08278866	      0.04881753	      0.07785250	      0.18495472	      0.13708919	      0.04633960	      0.13726083	      0.02755366	      0.08569113
      0.03652444	     -0.00027333	     -0.11104662	     32.55675993	     70.02108121	      0.02005519	      0.14923159	      0.04955986	      0.08282883	      0.04831016	      0.07789207	      0.18109330	      0.13706763	      0.04661509	      0.13721731	      0.02846310	      0.08566328
      0.03884584	     -0.00062358	     -0.19291126	     32.71933287	     70.03921353	      0.02005352	      0.14929647	      0.04859203	      0.08290427	      0.04738617	      0.07796629	      0.17418249	      0.13702940	      0.04699387	      0.13713531	      0.02969221	      0.08561373
      0.03998874	     -0.00086891	     -0.23656412	     32.79937883	     70.03409272	      0.02005272	      0.14932838	      0.04812810	      0.08294144	      0.04694319	      0.07800284	      0.17092360	      0.13701137	      0.04713071	      0.13709490	      0.03012888	      0.08559060
      0.04053204	     -0.00100315	     -0.25764198	     32.83742644	     70.02689780	      0.02005234	      0.14934354	      0.04791040	      0.08295910	      0.04673531	      0.07802020	      0.16945915	      0.13700294	      0.04703010	      0.13707578	      0.03114444	      0.08557951
      0.04107534	     -0.00114898	     -0.27933020	     32.87546953	     70.01767901	      0.02005196	      0.14935869	      0.04769451	      0.08297675	      0.04652914	      0.07803755	      0.16803145	      0.13699457	      0.04688322	      0.13705692	      0.03232915	      0.08556755
      0.04379183	     -0.00207240	     -0.40631308	     33.06560442	     69.96893848	      0.02005012	      0.14943431	      0.04664159	      0.08306488	      0.04552349	      0.07812419	      0.16116416	      0.13695335	      0.04616649	      0.13696571	      0.03674317	      0.08550247
      0.04650833	     -0.00338727	     -0.56644222	     33.25561443	     69.92261665	      0.02004835	      0.14950964	      0.04563139	      0.08315272	      0.04455843	      0.07821054	      0.15472155	      0.13691271	      0.04547820	      0.13687837	      0.03942235	      0.08543870
